# xmcd
#
# Track frame offsets:
#	150
#	18353
#	32874
#	50916
#	61934
#	76721
#	90422
#	107718
#	121396
#	139080
#	153078
#	171141
#	186590
#	204125
#	215946
#	230721
#
# Disc length: 3308 seconds
#
# Revision: 1
# Processed by: cddbd v1.5.2PL0 Copyright (c) Steve Scherf et al.
# Submitted via: audiograbber 1.83.01
#
DISCID=db0cea10
DTITLE=Nathan Charlton - Slim, You've Done Us Proud
DYEAR=2006
DGENRE=Country
TTITLE0=Camooweal
TTITLE1=Leave Him In The Longyard
TTITLE2=Saddle Up And Ride
TTITLE3=Ringer From The Top End
TTITLE4=Fire Of Gidgee Coal
TTITLE5=The  Drovers Are Back
TTITLE6=Where  Country Is
TTITLE7=TheBiggest Disappointment
TTITLE8=Grand Father Johnson
TTITLE9=Charleville
TTITLE10=When The Rain Tumbles Down In July
TTITLE11=West Of Winton
TTITLE12=Just An Old Cattle Dog
TTITLE13=Mount Isa Rodeo
TTITLE14=Lace Up Shoes
TTITLE15=Slim You've Done Us Proud
EXTD=
EXTT0=
EXTT1=
EXTT2=
EXTT3=
EXTT4=
EXTT5=
EXTT6=
EXTT7=
EXTT8=
EXTT9=
EXTT10=
EXTT11=
EXTT12=
EXTT13=
EXTT14=
EXTT15=
PLAYORDER=
